<mxfile host="app.diagrams.net" modified="2024-07-22T15:12:52.877Z" agent="Mozilla/5.0 (Windows NT 10.0; Win64; x64) AppleWebKit/537.36 (KHTML, like Gecko) Chrome/126.0.0.0 Safari/537.36 Edg/126.0.0.0" etag="88uwVill0h1x3Gn23LZa" version="24.7.1" type="github">
  <diagram name="gitflow" id="YsHEfCWtMxy-4PZ75NSL">
    <mxGraphModel dx="2538" dy="2033" grid="1" gridSize="10" guides="1" tooltips="1" connect="1" arrows="1" fold="1" page="1" pageScale="1" pageWidth="850" pageHeight="1100" math="0" shadow="0">
      <root>
        <mxCell id="0" />
        <mxCell id="1" parent="0" />
        <mxCell id="qWxLDXMtbbsYDqkpyxWJ-5" value="" style="endArrow=none;dashed=1;html=1;fillColor=#dae8fc;strokeColor=#6c8ebf;rounded=0;" edge="1" parent="1" source="qWxLDXMtbbsYDqkpyxWJ-12" target="qWxLDXMtbbsYDqkpyxWJ-8">
          <mxGeometry width="50" height="50" relative="1" as="geometry">
            <mxPoint x="179" y="445" as="sourcePoint" />
            <mxPoint x="859" y="445" as="targetPoint" />
          </mxGeometry>
        </mxCell>
        <mxCell id="qWxLDXMtbbsYDqkpyxWJ-7" value="1.0" style="ellipse;whiteSpace=wrap;html=1;aspect=fixed;fillColor=#dae8fc;strokeColor=#6c8ebf;fontStyle=1;labelPosition=center;verticalLabelPosition=top;align=center;verticalAlign=bottom;" vertex="1" parent="1">
          <mxGeometry x="169" y="435" width="20" height="20" as="geometry" />
        </mxCell>
        <mxCell id="qWxLDXMtbbsYDqkpyxWJ-12" value="3.0" style="ellipse;whiteSpace=wrap;html=1;aspect=fixed;fillColor=#dae8fc;strokeColor=#6c8ebf;fontStyle=1;labelPosition=center;verticalLabelPosition=top;align=center;verticalAlign=bottom;" vertex="1" parent="1">
          <mxGeometry x="890" y="435" width="20" height="20" as="geometry" />
        </mxCell>
        <mxCell id="qWxLDXMtbbsYDqkpyxWJ-13" value="" style="endArrow=none;dashed=1;html=1;fillColor=#dae8fc;strokeColor=#6c8ebf;rounded=0;" edge="1" parent="1" source="qWxLDXMtbbsYDqkpyxWJ-30" target="qWxLDXMtbbsYDqkpyxWJ-12">
          <mxGeometry width="50" height="50" relative="1" as="geometry">
            <mxPoint x="189" y="445" as="sourcePoint" />
            <mxPoint x="839" y="445" as="targetPoint" />
          </mxGeometry>
        </mxCell>
        <mxCell id="qWxLDXMtbbsYDqkpyxWJ-30" value="2.0" style="ellipse;whiteSpace=wrap;html=1;aspect=fixed;fillColor=#dae8fc;strokeColor=#6c8ebf;fontStyle=1;labelPosition=center;verticalLabelPosition=top;align=center;verticalAlign=bottom;" vertex="1" parent="1">
          <mxGeometry x="590" y="435" width="20" height="20" as="geometry" />
        </mxCell>
        <mxCell id="qWxLDXMtbbsYDqkpyxWJ-31" value="" style="endArrow=none;dashed=1;html=1;fillColor=#dae8fc;strokeColor=#6c8ebf;rounded=0;" edge="1" parent="1" source="qWxLDXMtbbsYDqkpyxWJ-7" target="qWxLDXMtbbsYDqkpyxWJ-30">
          <mxGeometry width="50" height="50" relative="1" as="geometry">
            <mxPoint x="188.9999999999917" y="445" as="sourcePoint" />
            <mxPoint x="829" y="445" as="targetPoint" />
            <Array as="points" />
          </mxGeometry>
        </mxCell>
        <mxCell id="qWxLDXMtbbsYDqkpyxWJ-8" value="ETCS-OB" style="text;html=1;strokeColor=#6c8ebf;fillColor=#dae8fc;align=center;verticalAlign=middle;whiteSpace=wrap;rounded=0;container=1;" vertex="1" collapsed="1" parent="1">
          <mxGeometry x="960" y="430" width="90" height="30" as="geometry">
            <mxRectangle x="960" y="430" width="230" height="120" as="alternateBounds" />
          </mxGeometry>
        </mxCell>
        <mxCell id="qWxLDXMtbbsYDqkpyxWJ-103" value="EVC" style="text;html=1;strokeColor=#6c8ebf;fillColor=#dae8fc;align=center;verticalAlign=middle;whiteSpace=wrap;rounded=0;" vertex="1" parent="qWxLDXMtbbsYDqkpyxWJ-8">
          <mxGeometry x="29" y="10" width="50" height="30" as="geometry" />
        </mxCell>
        <mxCell id="qWxLDXMtbbsYDqkpyxWJ-104" value="RTM" style="text;html=1;strokeColor=#6c8ebf;fillColor=#dae8fc;align=center;verticalAlign=middle;whiteSpace=wrap;rounded=0;" vertex="1" parent="qWxLDXMtbbsYDqkpyxWJ-8">
          <mxGeometry x="90" y="10" width="50" height="30" as="geometry" />
        </mxCell>
        <mxCell id="qWxLDXMtbbsYDqkpyxWJ-105" value="BTM" style="text;html=1;strokeColor=#6c8ebf;fillColor=#dae8fc;align=center;verticalAlign=middle;whiteSpace=wrap;rounded=0;" vertex="1" parent="qWxLDXMtbbsYDqkpyxWJ-8">
          <mxGeometry x="149" y="10" width="50" height="30" as="geometry" />
        </mxCell>
        <mxCell id="qWxLDXMtbbsYDqkpyxWJ-111" value="AWIO" style="text;html=1;strokeColor=#6c8ebf;fillColor=#dae8fc;align=center;verticalAlign=middle;whiteSpace=wrap;rounded=0;" vertex="1" parent="qWxLDXMtbbsYDqkpyxWJ-8">
          <mxGeometry x="29" y="80" width="50" height="30" as="geometry" />
        </mxCell>
        <mxCell id="qWxLDXMtbbsYDqkpyxWJ-114" value="ATC17" parent="0" />
        <mxCell id="qWxLDXMtbbsYDqkpyxWJ-127" value="" style="endArrow=none;dashed=1;html=1;fillColor=#dae8fc;strokeColor=#6c8ebf;rounded=0;" edge="1" parent="qWxLDXMtbbsYDqkpyxWJ-114" source="qWxLDXMtbbsYDqkpyxWJ-129" target="qWxLDXMtbbsYDqkpyxWJ-133">
          <mxGeometry width="50" height="50" relative="1" as="geometry">
            <mxPoint x="180" y="235" as="sourcePoint" />
            <mxPoint x="860" y="235" as="targetPoint" />
          </mxGeometry>
        </mxCell>
        <mxCell id="qWxLDXMtbbsYDqkpyxWJ-128" value="1.0" style="ellipse;whiteSpace=wrap;html=1;aspect=fixed;fillColor=#dae8fc;strokeColor=#6c8ebf;fontStyle=1;labelPosition=center;verticalLabelPosition=top;align=center;verticalAlign=bottom;" vertex="1" parent="qWxLDXMtbbsYDqkpyxWJ-114">
          <mxGeometry x="170" y="225" width="20" height="20" as="geometry" />
        </mxCell>
        <mxCell id="qWxLDXMtbbsYDqkpyxWJ-129" value="3.0" style="ellipse;whiteSpace=wrap;html=1;aspect=fixed;fillColor=#dae8fc;strokeColor=#6c8ebf;fontStyle=1;labelPosition=center;verticalLabelPosition=top;align=center;verticalAlign=bottom;" vertex="1" parent="qWxLDXMtbbsYDqkpyxWJ-114">
          <mxGeometry x="891" y="225" width="20" height="20" as="geometry" />
        </mxCell>
        <mxCell id="qWxLDXMtbbsYDqkpyxWJ-130" value="" style="endArrow=none;dashed=1;html=1;fillColor=#dae8fc;strokeColor=#6c8ebf;rounded=0;" edge="1" parent="qWxLDXMtbbsYDqkpyxWJ-114" source="qWxLDXMtbbsYDqkpyxWJ-131" target="qWxLDXMtbbsYDqkpyxWJ-129">
          <mxGeometry width="50" height="50" relative="1" as="geometry">
            <mxPoint x="190" y="235" as="sourcePoint" />
            <mxPoint x="840" y="235" as="targetPoint" />
          </mxGeometry>
        </mxCell>
        <mxCell id="qWxLDXMtbbsYDqkpyxWJ-131" value="2.0" style="ellipse;whiteSpace=wrap;html=1;aspect=fixed;fillColor=#dae8fc;strokeColor=#6c8ebf;fontStyle=1;labelPosition=center;verticalLabelPosition=top;align=center;verticalAlign=bottom;" vertex="1" parent="qWxLDXMtbbsYDqkpyxWJ-114">
          <mxGeometry x="591" y="225" width="20" height="20" as="geometry" />
        </mxCell>
        <mxCell id="qWxLDXMtbbsYDqkpyxWJ-132" value="" style="endArrow=none;dashed=1;html=1;fillColor=#dae8fc;strokeColor=#6c8ebf;rounded=0;" edge="1" parent="qWxLDXMtbbsYDqkpyxWJ-114" source="qWxLDXMtbbsYDqkpyxWJ-128" target="qWxLDXMtbbsYDqkpyxWJ-131">
          <mxGeometry width="50" height="50" relative="1" as="geometry">
            <mxPoint x="189.9999999999917" y="235" as="sourcePoint" />
            <mxPoint x="830" y="235" as="targetPoint" />
            <Array as="points" />
          </mxGeometry>
        </mxCell>
        <mxCell id="qWxLDXMtbbsYDqkpyxWJ-133" value="DMI" style="text;html=1;strokeColor=#6c8ebf;fillColor=#dae8fc;align=center;verticalAlign=middle;whiteSpace=wrap;rounded=0;container=1;collapsible=0;" vertex="1" parent="qWxLDXMtbbsYDqkpyxWJ-114">
          <mxGeometry x="961" y="220" width="89" height="30" as="geometry">
            <mxRectangle x="961" y="610" width="90" height="30" as="alternateBounds" />
          </mxGeometry>
        </mxCell>
        <mxCell id="qWxLDXMtbbsYDqkpyxWJ-134" value="" style="endArrow=none;dashed=1;html=1;fillColor=#dae8fc;strokeColor=#6c8ebf;rounded=0;" edge="1" parent="qWxLDXMtbbsYDqkpyxWJ-114" source="qWxLDXMtbbsYDqkpyxWJ-136" target="qWxLDXMtbbsYDqkpyxWJ-140">
          <mxGeometry width="50" height="50" relative="1" as="geometry">
            <mxPoint x="180" y="55" as="sourcePoint" />
            <mxPoint x="860" y="55" as="targetPoint" />
          </mxGeometry>
        </mxCell>
        <mxCell id="qWxLDXMtbbsYDqkpyxWJ-135" value="1.0" style="ellipse;whiteSpace=wrap;html=1;aspect=fixed;fillColor=#dae8fc;strokeColor=#6c8ebf;fontStyle=1;labelPosition=center;verticalLabelPosition=top;align=center;verticalAlign=bottom;" vertex="1" parent="qWxLDXMtbbsYDqkpyxWJ-114">
          <mxGeometry x="170" y="45" width="20" height="20" as="geometry" />
        </mxCell>
        <mxCell id="qWxLDXMtbbsYDqkpyxWJ-136" value="3.0" style="ellipse;whiteSpace=wrap;html=1;aspect=fixed;fillColor=#dae8fc;strokeColor=#6c8ebf;fontStyle=1;labelPosition=center;verticalLabelPosition=top;align=center;verticalAlign=bottom;" vertex="1" parent="qWxLDXMtbbsYDqkpyxWJ-114">
          <mxGeometry x="891" y="45" width="20" height="20" as="geometry" />
        </mxCell>
        <mxCell id="qWxLDXMtbbsYDqkpyxWJ-137" value="" style="endArrow=none;dashed=1;html=1;fillColor=#dae8fc;strokeColor=#6c8ebf;rounded=0;" edge="1" parent="qWxLDXMtbbsYDqkpyxWJ-114" source="qWxLDXMtbbsYDqkpyxWJ-138" target="qWxLDXMtbbsYDqkpyxWJ-136">
          <mxGeometry width="50" height="50" relative="1" as="geometry">
            <mxPoint x="190" y="55" as="sourcePoint" />
            <mxPoint x="840" y="55" as="targetPoint" />
          </mxGeometry>
        </mxCell>
        <mxCell id="qWxLDXMtbbsYDqkpyxWJ-138" value="2.0" style="ellipse;whiteSpace=wrap;html=1;aspect=fixed;fillColor=#dae8fc;strokeColor=#6c8ebf;fontStyle=1;labelPosition=center;verticalLabelPosition=top;align=center;verticalAlign=bottom;" vertex="1" parent="qWxLDXMtbbsYDqkpyxWJ-114">
          <mxGeometry x="591" y="45" width="20" height="20" as="geometry" />
        </mxCell>
        <mxCell id="qWxLDXMtbbsYDqkpyxWJ-139" value="" style="endArrow=none;dashed=1;html=1;fillColor=#dae8fc;strokeColor=#6c8ebf;rounded=0;" edge="1" parent="qWxLDXMtbbsYDqkpyxWJ-114" source="qWxLDXMtbbsYDqkpyxWJ-135" target="qWxLDXMtbbsYDqkpyxWJ-138">
          <mxGeometry width="50" height="50" relative="1" as="geometry">
            <mxPoint x="189.9999999999917" y="55" as="sourcePoint" />
            <mxPoint x="830" y="55" as="targetPoint" />
            <Array as="points" />
          </mxGeometry>
        </mxCell>
        <mxCell id="qWxLDXMtbbsYDqkpyxWJ-140" value="JRU" style="text;html=1;strokeColor=#6c8ebf;fillColor=#dae8fc;align=center;verticalAlign=middle;whiteSpace=wrap;rounded=0;container=1;collapsible=0;" vertex="1" parent="qWxLDXMtbbsYDqkpyxWJ-114">
          <mxGeometry x="961" y="40" width="89" height="30" as="geometry">
            <mxRectangle x="961" y="610" width="90" height="30" as="alternateBounds" />
          </mxGeometry>
        </mxCell>
        <mxCell id="qWxLDXMtbbsYDqkpyxWJ-141" value="" style="endArrow=none;dashed=1;html=1;fillColor=#dae8fc;strokeColor=#6c8ebf;rounded=0;" edge="1" parent="qWxLDXMtbbsYDqkpyxWJ-114" source="qWxLDXMtbbsYDqkpyxWJ-143" target="qWxLDXMtbbsYDqkpyxWJ-147">
          <mxGeometry width="50" height="50" relative="1" as="geometry">
            <mxPoint x="180" y="-145" as="sourcePoint" />
            <mxPoint x="860" y="-145" as="targetPoint" />
          </mxGeometry>
        </mxCell>
        <mxCell id="qWxLDXMtbbsYDqkpyxWJ-142" value="1.0" style="ellipse;whiteSpace=wrap;html=1;aspect=fixed;fillColor=#dae8fc;strokeColor=#6c8ebf;fontStyle=1;labelPosition=center;verticalLabelPosition=top;align=center;verticalAlign=bottom;" vertex="1" parent="qWxLDXMtbbsYDqkpyxWJ-114">
          <mxGeometry x="170" y="-155" width="20" height="20" as="geometry" />
        </mxCell>
        <mxCell id="qWxLDXMtbbsYDqkpyxWJ-143" value="3.0" style="ellipse;whiteSpace=wrap;html=1;aspect=fixed;fillColor=#dae8fc;strokeColor=#6c8ebf;fontStyle=1;labelPosition=center;verticalLabelPosition=top;align=center;verticalAlign=bottom;" vertex="1" parent="qWxLDXMtbbsYDqkpyxWJ-114">
          <mxGeometry x="891" y="-155" width="20" height="20" as="geometry" />
        </mxCell>
        <mxCell id="qWxLDXMtbbsYDqkpyxWJ-144" value="" style="endArrow=none;dashed=1;html=1;fillColor=#dae8fc;strokeColor=#6c8ebf;rounded=0;" edge="1" parent="qWxLDXMtbbsYDqkpyxWJ-114" source="qWxLDXMtbbsYDqkpyxWJ-145" target="qWxLDXMtbbsYDqkpyxWJ-143">
          <mxGeometry width="50" height="50" relative="1" as="geometry">
            <mxPoint x="190" y="-145" as="sourcePoint" />
            <mxPoint x="840" y="-145" as="targetPoint" />
          </mxGeometry>
        </mxCell>
        <mxCell id="qWxLDXMtbbsYDqkpyxWJ-145" value="2.0" style="ellipse;whiteSpace=wrap;html=1;aspect=fixed;fillColor=#dae8fc;strokeColor=#6c8ebf;fontStyle=1;labelPosition=center;verticalLabelPosition=top;align=center;verticalAlign=bottom;" vertex="1" parent="qWxLDXMtbbsYDqkpyxWJ-114">
          <mxGeometry x="591" y="-155" width="20" height="20" as="geometry" />
        </mxCell>
        <mxCell id="qWxLDXMtbbsYDqkpyxWJ-146" value="" style="endArrow=none;dashed=1;html=1;fillColor=#dae8fc;strokeColor=#6c8ebf;rounded=0;" edge="1" parent="qWxLDXMtbbsYDqkpyxWJ-114" source="qWxLDXMtbbsYDqkpyxWJ-142" target="qWxLDXMtbbsYDqkpyxWJ-145">
          <mxGeometry width="50" height="50" relative="1" as="geometry">
            <mxPoint x="189.9999999999917" y="-145" as="sourcePoint" />
            <mxPoint x="830" y="-145" as="targetPoint" />
            <Array as="points" />
          </mxGeometry>
        </mxCell>
        <mxCell id="qWxLDXMtbbsYDqkpyxWJ-147" value="EDOR" style="text;html=1;strokeColor=#6c8ebf;fillColor=#dae8fc;align=center;verticalAlign=middle;whiteSpace=wrap;rounded=0;container=1;collapsible=0;" vertex="1" parent="qWxLDXMtbbsYDqkpyxWJ-114">
          <mxGeometry x="961" y="-160" width="89" height="30" as="geometry">
            <mxRectangle x="961" y="610" width="90" height="30" as="alternateBounds" />
          </mxGeometry>
        </mxCell>
        <mxCell id="qWxLDXMtbbsYDqkpyxWJ-169" value="2.3" style="ellipse;whiteSpace=wrap;html=1;aspect=fixed;fillColor=#d5e8d4;strokeColor=#82b366;fontStyle=1;labelPosition=center;verticalLabelPosition=top;align=center;verticalAlign=bottom;" vertex="1" parent="qWxLDXMtbbsYDqkpyxWJ-114">
          <mxGeometry x="80" y="530" width="20" height="20" as="geometry" />
        </mxCell>
        <mxCell id="qWxLDXMtbbsYDqkpyxWJ-173" value="3.0" style="ellipse;whiteSpace=wrap;html=1;aspect=fixed;fillColor=#d5e8d4;strokeColor=#82b366;fontStyle=1;labelPosition=center;verticalLabelPosition=top;align=center;verticalAlign=bottom;" vertex="1" parent="qWxLDXMtbbsYDqkpyxWJ-114">
          <mxGeometry x="180" y="530" width="20" height="20" as="geometry" />
        </mxCell>
        <mxCell id="qWxLDXMtbbsYDqkpyxWJ-174" value="" style="endArrow=none;dashed=1;html=1;fillColor=#d5e8d4;strokeColor=#82b366;rounded=0;startFillColor=#33FF33;exitX=1;exitY=0.5;exitDx=0;exitDy=0;entryX=0;entryY=0.5;entryDx=0;entryDy=0;orthogonalLoop=0;" edge="1" parent="qWxLDXMtbbsYDqkpyxWJ-114" source="qWxLDXMtbbsYDqkpyxWJ-169" target="qWxLDXMtbbsYDqkpyxWJ-173">
          <mxGeometry width="50" height="50" relative="1" as="geometry">
            <mxPoint y="600" as="sourcePoint" />
            <mxPoint x="50" y="600" as="targetPoint" />
            <Array as="points" />
          </mxGeometry>
        </mxCell>
        <mxCell id="qWxLDXMtbbsYDqkpyxWJ-177" value="" style="endArrow=none;dashed=1;html=1;fillColor=#d5e8d4;strokeColor=#82b366;rounded=0;startFillColor=#33FF33;entryX=0;entryY=0.5;entryDx=0;entryDy=0;orthogonalLoop=0;" edge="1" parent="qWxLDXMtbbsYDqkpyxWJ-114" source="qWxLDXMtbbsYDqkpyxWJ-170" target="qWxLDXMtbbsYDqkpyxWJ-169">
          <mxGeometry width="50" height="50" relative="1" as="geometry">
            <mxPoint x="-60" y="540" as="sourcePoint" />
            <mxPoint x="-30" y="590" as="targetPoint" />
            <Array as="points" />
          </mxGeometry>
        </mxCell>
        <mxCell id="qWxLDXMtbbsYDqkpyxWJ-178" value="" style="endArrow=none;dashed=1;html=1;fillColor=#d5e8d4;strokeColor=#82b366;rounded=0;startFillColor=#33FF33;entryX=0;entryY=0.5;entryDx=0;entryDy=0;orthogonalLoop=0;" edge="1" parent="qWxLDXMtbbsYDqkpyxWJ-114" target="qWxLDXMtbbsYDqkpyxWJ-170">
          <mxGeometry width="50" height="50" relative="1" as="geometry">
            <mxPoint x="-60" y="540" as="sourcePoint" />
            <mxPoint x="130" y="540" as="targetPoint" />
            <Array as="points" />
          </mxGeometry>
        </mxCell>
        <mxCell id="qWxLDXMtbbsYDqkpyxWJ-170" value="2.2" style="ellipse;whiteSpace=wrap;html=1;aspect=fixed;fillColor=#d5e8d4;strokeColor=#82b366;fontStyle=1;labelPosition=center;verticalLabelPosition=top;align=center;verticalAlign=bottom;" vertex="1" parent="qWxLDXMtbbsYDqkpyxWJ-114">
          <mxGeometry x="-60" y="530" width="20" height="20" as="geometry" />
        </mxCell>
        <mxCell id="qWxLDXMtbbsYDqkpyxWJ-181" value="ATC17" style="ellipse;whiteSpace=wrap;html=1;aspect=fixed;fillColor=#ffe6cc;strokeColor=#d79b00;fontStyle=1;labelPosition=center;verticalLabelPosition=top;align=center;verticalAlign=bottom;" vertex="1" parent="qWxLDXMtbbsYDqkpyxWJ-114">
          <mxGeometry x="30" y="630" width="20" height="20" as="geometry" />
        </mxCell>
        <mxCell id="qWxLDXMtbbsYDqkpyxWJ-186" value="" style="endArrow=none;dashed=1;html=1;fillColor=#d5e8d4;strokeColor=#82b366;rounded=0;startFillColor=#33FF33;exitX=1.156;exitY=0.058;exitDx=0;exitDy=0;entryX=0;entryY=1;entryDx=0;entryDy=0;orthogonalLoop=0;exitPerimeter=0;" edge="1" parent="qWxLDXMtbbsYDqkpyxWJ-114" source="qWxLDXMtbbsYDqkpyxWJ-150" target="qWxLDXMtbbsYDqkpyxWJ-117">
          <mxGeometry width="50" height="50" relative="1" as="geometry">
            <mxPoint x="110" y="860" as="sourcePoint" />
            <mxPoint x="170" y="860" as="targetPoint" />
            <Array as="points" />
          </mxGeometry>
        </mxCell>
        <mxCell id="qWxLDXMtbbsYDqkpyxWJ-187" value="" style="endArrow=none;dashed=1;html=1;fillColor=#d5e8d4;strokeColor=#82b366;rounded=1;startFillColor=#33FF33;exitX=1;exitY=0;exitDx=0;exitDy=0;entryX=0;entryY=1;entryDx=0;entryDy=0;orthogonalLoop=0;curved=0;" edge="1" parent="qWxLDXMtbbsYDqkpyxWJ-114" source="qWxLDXMtbbsYDqkpyxWJ-169">
          <mxGeometry width="50" height="50" relative="1" as="geometry">
            <mxPoint x="90" y="539" as="sourcePoint" />
            <mxPoint x="170" y="450" as="targetPoint" />
            <Array as="points">
              <mxPoint x="160" y="500" />
            </Array>
          </mxGeometry>
        </mxCell>
        <mxCell id="qWxLDXMtbbsYDqkpyxWJ-188" value="" style="endArrow=none;dashed=1;html=1;fillColor=#ffe6cc;strokeColor=#d79b00;rounded=1;startFillColor=#33FF33;exitX=0.5;exitY=0;exitDx=0;exitDy=0;entryX=0.5;entryY=1;entryDx=0;entryDy=0;orthogonalLoop=0;curved=0;" edge="1" parent="qWxLDXMtbbsYDqkpyxWJ-114" source="qWxLDXMtbbsYDqkpyxWJ-181" target="qWxLDXMtbbsYDqkpyxWJ-169">
          <mxGeometry width="50" height="50" relative="1" as="geometry">
            <mxPoint x="110" y="550" as="sourcePoint" />
            <mxPoint x="190" y="550" as="targetPoint" />
            <Array as="points">
              <mxPoint x="70" y="590" />
            </Array>
          </mxGeometry>
        </mxCell>
        <mxCell id="qWxLDXMtbbsYDqkpyxWJ-189" value="ATC17b" style="ellipse;whiteSpace=wrap;html=1;aspect=fixed;fillColor=#ffe6cc;strokeColor=#d79b00;fontStyle=1;labelPosition=center;verticalLabelPosition=top;align=center;verticalAlign=bottom;" vertex="1" parent="qWxLDXMtbbsYDqkpyxWJ-114">
          <mxGeometry x="140" y="630" width="20" height="20" as="geometry" />
        </mxCell>
        <mxCell id="qWxLDXMtbbsYDqkpyxWJ-190" value="" style="endArrow=none;dashed=1;html=1;fillColor=#ffe6cc;strokeColor=#d79b00;rounded=0;startFillColor=#33FF33;entryX=0;entryY=0.5;entryDx=0;entryDy=0;orthogonalLoop=0;exitX=1;exitY=0.5;exitDx=0;exitDy=0;" edge="1" parent="qWxLDXMtbbsYDqkpyxWJ-114" source="qWxLDXMtbbsYDqkpyxWJ-181" target="qWxLDXMtbbsYDqkpyxWJ-189">
          <mxGeometry width="50" height="50" relative="1" as="geometry">
            <mxPoint x="60" y="640" as="sourcePoint" />
            <mxPoint x="100" y="560" as="targetPoint" />
            <Array as="points" />
          </mxGeometry>
        </mxCell>
        <mxCell id="qWxLDXMtbbsYDqkpyxWJ-113" value="QNGR" parent="0" />
        <mxCell id="qWxLDXMtbbsYDqkpyxWJ-149" value="2.2RC8" style="ellipse;whiteSpace=wrap;html=1;aspect=fixed;fillColor=#d5e8d4;strokeColor=#82b366;fontStyle=1;labelPosition=center;verticalLabelPosition=top;align=center;verticalAlign=bottom;" vertex="1" parent="qWxLDXMtbbsYDqkpyxWJ-113">
          <mxGeometry x="20" y="890" width="20" height="20" as="geometry" />
        </mxCell>
        <mxCell id="qWxLDXMtbbsYDqkpyxWJ-150" value="2.3" style="ellipse;whiteSpace=wrap;html=1;aspect=fixed;fillColor=#d5e8d4;strokeColor=#82b366;fontStyle=1;labelPosition=center;verticalLabelPosition=top;align=center;verticalAlign=bottom;" vertex="1" parent="qWxLDXMtbbsYDqkpyxWJ-113">
          <mxGeometry x="80" y="840" width="20" height="20" as="geometry" />
        </mxCell>
        <mxCell id="qWxLDXMtbbsYDqkpyxWJ-152" value="2.2" style="ellipse;whiteSpace=wrap;html=1;aspect=fixed;fillColor=#d5e8d4;strokeColor=#82b366;fontStyle=1;labelPosition=center;verticalLabelPosition=top;align=center;verticalAlign=bottom;" vertex="1" parent="qWxLDXMtbbsYDqkpyxWJ-113">
          <mxGeometry x="-100" y="840" width="20" height="20" as="geometry" />
        </mxCell>
        <mxCell id="qWxLDXMtbbsYDqkpyxWJ-153" value="" style="endArrow=none;dashed=1;html=1;fillColor=#d5e8d4;strokeColor=#82b366;rounded=0;startFillColor=#33FF33;exitX=1;exitY=0.5;exitDx=0;exitDy=0;entryX=0;entryY=0.5;entryDx=0;entryDy=0;orthogonalLoop=0;" edge="1" parent="qWxLDXMtbbsYDqkpyxWJ-113" source="qWxLDXMtbbsYDqkpyxWJ-148" target="qWxLDXMtbbsYDqkpyxWJ-149">
          <mxGeometry width="50" height="50" relative="1" as="geometry">
            <mxPoint x="-80" y="870" as="sourcePoint" />
            <mxPoint x="-40" y="910" as="targetPoint" />
            <Array as="points" />
          </mxGeometry>
        </mxCell>
        <mxCell id="qWxLDXMtbbsYDqkpyxWJ-154" value="" style="endArrow=none;dashed=1;html=1;fillColor=#d5e8d4;strokeColor=#82b366;rounded=0;startFillColor=#33FF33;exitX=1;exitY=0.5;exitDx=0;exitDy=0;entryX=0.5;entryY=1;entryDx=0;entryDy=0;orthogonalLoop=0;" edge="1" parent="qWxLDXMtbbsYDqkpyxWJ-113" source="qWxLDXMtbbsYDqkpyxWJ-149" target="qWxLDXMtbbsYDqkpyxWJ-150">
          <mxGeometry width="50" height="50" relative="1" as="geometry">
            <mxPoint x="-20" y="910" as="sourcePoint" />
            <mxPoint x="20" y="910" as="targetPoint" />
            <Array as="points">
              <mxPoint x="70" y="900" />
            </Array>
          </mxGeometry>
        </mxCell>
        <mxCell id="qWxLDXMtbbsYDqkpyxWJ-155" value="3.0" style="ellipse;whiteSpace=wrap;html=1;aspect=fixed;fillColor=#d5e8d4;strokeColor=#82b366;fontStyle=1;labelPosition=center;verticalLabelPosition=top;align=center;verticalAlign=bottom;" vertex="1" parent="qWxLDXMtbbsYDqkpyxWJ-113">
          <mxGeometry x="160" y="840" width="20" height="20" as="geometry" />
        </mxCell>
        <mxCell id="qWxLDXMtbbsYDqkpyxWJ-156" value="" style="endArrow=none;dashed=1;html=1;fillColor=#d5e8d4;strokeColor=#82b366;rounded=0;startFillColor=#33FF33;exitX=1;exitY=0.5;exitDx=0;exitDy=0;entryX=0;entryY=0.5;entryDx=0;entryDy=0;orthogonalLoop=0;" edge="1" parent="qWxLDXMtbbsYDqkpyxWJ-113" source="qWxLDXMtbbsYDqkpyxWJ-150" target="qWxLDXMtbbsYDqkpyxWJ-155">
          <mxGeometry width="50" height="50" relative="1" as="geometry">
            <mxPoint x="-20" y="910" as="sourcePoint" />
            <mxPoint x="30" y="910" as="targetPoint" />
            <Array as="points" />
          </mxGeometry>
        </mxCell>
        <mxCell id="qWxLDXMtbbsYDqkpyxWJ-148" value="2.2RC7" style="ellipse;whiteSpace=wrap;html=1;aspect=fixed;fillColor=#d5e8d4;strokeColor=#82b366;fontStyle=1;labelPosition=center;verticalLabelPosition=top;align=center;verticalAlign=bottom;" vertex="1" parent="qWxLDXMtbbsYDqkpyxWJ-113">
          <mxGeometry x="-50" y="890" width="20" height="20" as="geometry" />
        </mxCell>
        <mxCell id="qWxLDXMtbbsYDqkpyxWJ-151" value="" style="endArrow=none;dashed=1;html=1;fillColor=#d5e8d4;strokeColor=#82b366;rounded=0;startFillColor=#33FF33;exitX=0.5;exitY=1;exitDx=0;exitDy=0;entryX=0;entryY=0.5;entryDx=0;entryDy=0;orthogonalLoop=0;" edge="1" parent="qWxLDXMtbbsYDqkpyxWJ-113" source="qWxLDXMtbbsYDqkpyxWJ-152" target="qWxLDXMtbbsYDqkpyxWJ-148">
          <mxGeometry width="50" height="50" relative="1" as="geometry">
            <mxPoint x="-110" y="870" as="sourcePoint" />
            <mxPoint x="291" y="870" as="targetPoint" />
            <Array as="points">
              <mxPoint x="-80" y="900" />
            </Array>
          </mxGeometry>
        </mxCell>
        <mxCell id="qWxLDXMtbbsYDqkpyxWJ-112" value="QTMP" parent="0" />
        <mxCell id="qWxLDXMtbbsYDqkpyxWJ-116" value="" style="endArrow=none;dashed=1;html=1;fillColor=#dae8fc;strokeColor=#6c8ebf;rounded=0;" edge="1" parent="qWxLDXMtbbsYDqkpyxWJ-112" source="qWxLDXMtbbsYDqkpyxWJ-118" target="qWxLDXMtbbsYDqkpyxWJ-122">
          <mxGeometry width="50" height="50" relative="1" as="geometry">
            <mxPoint x="190" y="745" as="sourcePoint" />
            <mxPoint x="870" y="745" as="targetPoint" />
          </mxGeometry>
        </mxCell>
        <object label="1.0" Scope="First Client Demo" id="qWxLDXMtbbsYDqkpyxWJ-117">
          <mxCell style="ellipse;whiteSpace=wrap;html=1;aspect=fixed;fillColor=#dae8fc;strokeColor=#6c8ebf;fontStyle=1;labelPosition=center;verticalLabelPosition=top;align=center;verticalAlign=bottom;" vertex="1" parent="qWxLDXMtbbsYDqkpyxWJ-112">
            <mxGeometry x="180" y="735" width="20" height="20" as="geometry" />
          </mxCell>
        </object>
        <mxCell id="qWxLDXMtbbsYDqkpyxWJ-118" value="3.0" style="ellipse;whiteSpace=wrap;html=1;aspect=fixed;fillColor=#dae8fc;strokeColor=#6c8ebf;fontStyle=1;labelPosition=center;verticalLabelPosition=top;align=center;verticalAlign=bottom;" vertex="1" parent="qWxLDXMtbbsYDqkpyxWJ-112">
          <mxGeometry x="901" y="735" width="20" height="20" as="geometry" />
        </mxCell>
        <mxCell id="qWxLDXMtbbsYDqkpyxWJ-119" value="" style="endArrow=none;dashed=1;html=1;fillColor=#dae8fc;strokeColor=#6c8ebf;rounded=0;" edge="1" parent="qWxLDXMtbbsYDqkpyxWJ-112" source="qWxLDXMtbbsYDqkpyxWJ-120" target="qWxLDXMtbbsYDqkpyxWJ-118">
          <mxGeometry width="50" height="50" relative="1" as="geometry">
            <mxPoint x="200" y="745" as="sourcePoint" />
            <mxPoint x="850" y="745" as="targetPoint" />
          </mxGeometry>
        </mxCell>
        <mxCell id="qWxLDXMtbbsYDqkpyxWJ-120" value="2.0" style="ellipse;whiteSpace=wrap;html=1;aspect=fixed;fillColor=#dae8fc;strokeColor=#6c8ebf;fontStyle=1;labelPosition=center;verticalLabelPosition=top;align=center;verticalAlign=bottom;" vertex="1" parent="qWxLDXMtbbsYDqkpyxWJ-112">
          <mxGeometry x="601" y="735" width="20" height="20" as="geometry" />
        </mxCell>
        <mxCell id="qWxLDXMtbbsYDqkpyxWJ-121" value="" style="endArrow=none;dashed=1;html=1;fillColor=#dae8fc;strokeColor=#6c8ebf;rounded=0;" edge="1" parent="qWxLDXMtbbsYDqkpyxWJ-112" source="qWxLDXMtbbsYDqkpyxWJ-117" target="qWxLDXMtbbsYDqkpyxWJ-120">
          <mxGeometry width="50" height="50" relative="1" as="geometry">
            <mxPoint x="199.9999999999917" y="745" as="sourcePoint" />
            <mxPoint x="840" y="745" as="targetPoint" />
            <Array as="points" />
          </mxGeometry>
        </mxCell>
        <mxCell id="qWxLDXMtbbsYDqkpyxWJ-122" value="ATO-OB" style="text;html=1;strokeColor=#6c8ebf;fillColor=#dae8fc;align=center;verticalAlign=middle;whiteSpace=wrap;rounded=0;container=1;collapsible=0;" vertex="1" parent="qWxLDXMtbbsYDqkpyxWJ-112">
          <mxGeometry x="971" y="730" width="89" height="30" as="geometry">
            <mxRectangle x="961" y="610" width="90" height="30" as="alternateBounds" />
          </mxGeometry>
        </mxCell>
      </root>
    </mxGraphModel>
  </diagram>
</mxfile>
